# This file uses centimeters as units for non-parametric coordinates.

mtllib squirrelredone.mtl
g default
v -0.086316 -0.103838 0.481215
v 0.086316 -0.103838 0.481215
v -0.064994 0.047198 0.564015
v 0.064994 0.047198 0.564014
v -0.262942 0.320188 0.203812
v 0.262942 0.320188 0.203812
v -0.206443 -0.014546 0.236562
v 0.206443 -0.014546 0.236562
v -0.105419 0.166489 0.474570
v -0.176934 -0.039665 0.420718
v 0.176934 -0.039665 0.420718
v 0.105419 0.166489 0.474569
v -0.021178 0.236619 0.121550
v -0.013390 -0.098115 0.154300
v -0.009767 -0.123234 0.338457
v -0.005515 -0.103838 0.481215
v -0.007272 0.085633 0.567340
v -0.010431 0.147518 0.355474
v -0.399201 -1.130438 0.443297
v 0.399201 -1.130438 0.443297
v -0.174950 -0.043040 0.396907
v 0.174950 -0.043040 0.396907
v -0.114455 -0.030461 0.218521
v 0.114455 -0.030461 0.218521
v -0.552903 -1.079110 0.200246
v 0.552903 -1.079110 0.200246
v -0.182869 -0.461351 0.322657
v -0.232382 -0.454395 -0.021600
v 0.232382 -0.454395 -0.021600
v 0.182869 -0.461351 0.322657
v -0.342091 -0.997409 0.509622
v -0.402727 -0.882199 -0.077134
v 0.402727 -0.882199 -0.077134
v 0.342091 -0.997409 0.509622
v 0.010523 -1.130596 0.522020
v 0.042640 -0.916680 0.383962
v 0.035026 -0.440078 0.382986
v -0.004650 -0.098594 0.424105
v -0.004114 -0.095933 0.156137
v 0.006462 -0.382417 -0.112191
v -0.016900 -0.978919 -0.235064
v -0.018755 -1.107035 -0.101833
v -0.006469 -0.954785 -0.155760
v -0.248808 -0.034875 -0.396570
v -0.075306 0.177147 -0.468327
v -0.278175 -0.022884 -0.733814
v 0.037789 -0.035618 -0.796085
v 0.015797 -0.596601 -0.279164
v 0.011116 -0.632194 -0.499486
v -0.118090 -0.675043 -0.494229
v -0.132749 -0.637802 -0.283057
v 0.009923 -0.131558 -0.171471
v 0.041549 -0.184168 -0.514331
v -0.231215 -0.276771 -0.459420
v -0.194901 -0.353020 -0.157357
v -0.050611 -0.280227 -0.114035
vt 0.763452 0.994283
vt 0.903130 0.975469
vt 0.778858 1.010537
vt 0.874573 0.990265
vt 0.740512 1.117937
vt 0.862585 1.021653
vt 0.760787 1.076966
vt 0.856411 1.056448
vt 0.608833 2.578183
vt 0.951209 0.987692
vt 0.752444 1.006359
vt 0.925789 0.979125
vt 0.905610 0.987686
vt 0.911792 1.003915
vt 0.884103 0.995803
vt 0.885407 1.017381
vt 0.931764 1.018282
vt 0.899986 1.059833
vt 0.790300 1.039318
vt 0.787747 1.010619
vt 0.746681 2.778901
vt 0.772192 0.988176
vt 0.754491 0.976414
vt 0.876606 1.102236
vt 0.772008 1.029694
vt 0.546806 2.753239
vt 0.815937 1.082206
vt 0.608833 2.578183
vt 0.746681 2.778901
vt 0.828716 2.614807
vt 0.781480 1.118793
vt 0.797895 1.074134
vt 0.841412 1.101265
vt 0.731839 1.019127
vt -0.111654 2.127631
vt -0.382099 2.040608
vt -0.132055 1.951156
vt -0.425209 1.938562
vt -0.271758 2.727784
vt -0.149018 2.699111
vt -0.234483 2.843901
vt -0.150600 2.884586
vt -0.505359 1.583567
vt -0.439868 1.334285
vt -0.134073 1.375851
vt -0.133853 1.250010
vt -0.398626 1.754837
vt -0.113931 1.807591
vt 0.152944 1.947204
vt 0.353830 1.957983
vt 0.104880 2.048018
vt 0.293106 2.060254
vt 0.504138 1.901382
vt 0.707443 2.057228
vt -0.989860 2.114531
vt -0.797362 1.945684
vt -0.576422 2.090468
vt -0.626753 1.939928
vt -0.511528 2.393244
vt -0.277167 2.436745
vt -0.400643 2.718063
vt -0.661851 2.495336
vt -0.497823 2.708306
vt -0.020534 2.730615
vt -0.009326 2.439472
vt 0.108807 2.723539
vt 0.226137 2.400255
vt -0.120315 2.456071
vt -0.978454 2.433933
vt -0.740512 2.462123
vt -1.283367 2.148850
vt -1.128337 2.538988
vt 0.481261 2.420691
vt 0.716646 2.376794
vt -0.061033 2.846009
vt 0.368766 2.500325
vt 0.211037 2.718760
vt 1.023798 2.080893
vt 0.864613 2.469354
vt 0.193811 1.335297
vt 0.262029 1.583339
vt 0.155640 1.754571
vt 0.427223 0.524174
vt 0.479847 0.722225
vt 0.362524 0.477111
vt 0.332126 0.727339
vt 0.212595 0.659281
vt 0.252644 0.457559
vt 0.546819 0.238455
vt 0.546615 0.074886
vt 0.614565 0.079888
vt 0.025641 0.813006
vt 0.171422 0.866456
vt 0.001935 0.998008
vt 0.463109 0.834794
vt 0.632596 0.703242
vt 0.614842 0.926508
vt 0.055075 0.633958
vt 0.146788 0.482226
vt 0.233326 0.739330
vt 0.490814 0.310981
vt 0.404276 0.053877
vt 0.544467 0.159033
vt 0.590266 0.564852
vt 0.798970 0.612933
vt 0.682226 0.817119
vt 0.969055 0.801121
vt 0.764869 0.684377
vt 0.913798 0.556818
vt 0.001935 0.323135
vt 0.002104 0.074463
vt 0.147013 0.152559
vt 0.776405 0.929102
vt 0.673772 0.835505
vt 0.790780 0.706876
vt 0.750029 0.001992
vt 0.797673 0.206450
vt 0.468803 0.345101
vt 0.536289 0.599434
vt 0.606880 0.624468
vt 0.455518 0.835167
vt 0.256302 0.447643
vt 0.001935 0.515123
vt 0.216431 0.003518
vt 0.465498 0.460333
vt 0.263837 0.482702
vt 0.263858 0.003517
vt 0.730708 0.568142
vt 0.755259 0.229809
vt 0.966647 0.493368
vt 0.729535 0.592054
vt 0.518147 0.328495
vt 0.668728 0.278630
vt 0.001935 0.795021
vt 0.055588 0.643074
vt 0.214606 0.878305
vt 0.396285 0.915751
vt 0.237267 0.680519
vt 0.421319 0.845159
vt 0.659690 0.513672
vt 0.463109 0.640021
vt 0.505114 0.334673
vt 0.957012 0.136617
vt 0.969602 0.457831
vt 0.797133 0.184904
vt 0.470184 0.333836
vt 0.389094 0.275368
vt 0.400182 0.062796
vt 0.877805 0.756779
vt 0.934393 0.956698
vt 0.791439 0.774977
vt 0.398019 0.927381
vt 0.297088 0.934603
vt 0.222084 0.757884
vn 0.000000 -0.480713 0.876878
vn -0.004160 -0.466332 0.884600
vn 0.169019 -0.421786 0.890803
vn -0.006925 -0.413853 0.910317
vn 0.553727 0.769120 0.319126
vn 0.040982 0.896163 0.441828
vn 0.000579 0.939951 0.341309
vn 0.001376 0.959893 0.280362
vn -0.364928 -0.151472 -0.918632
vn -0.008399 -0.136820 -0.990560
vn -0.399595 -0.121320 -0.908628
vn 0.013101 -0.097063 -0.995192
vn -0.475289 -0.876599 -0.075328
vn -0.002587 -0.995070 -0.099140
vn -0.372941 -0.924873 -0.074322
vn 0.000002 -0.990896 0.134629
vn 0.663689 -0.285358 0.691439
vn 0.914626 0.151884 0.374688
vn 0.795812 0.027650 0.604913
vn 0.897802 0.005556 0.440365
vn -0.897802 0.005555 0.440364
vn -0.914626 0.151882 0.374688
vn -0.795813 0.027649 0.604911
vn -0.663689 -0.285359 0.691438
vn -0.884302 -0.104742 0.455015
vn -0.915735 -0.016757 0.401433
vn -0.450851 -0.889166 -0.078214
vn -0.000904 -0.990828 -0.135128
vn 0.915735 -0.016757 0.401434
vn 0.884302 -0.104741 0.455016
vn 0.418763 0.862352 0.284582
vn 0.008292 0.934599 0.355606
vn 0.346138 -0.112797 -0.931378
vn 0.314247 -0.144835 -0.938228
vn 0.440534 -0.892936 -0.092710
vn 0.413316 -0.906172 -0.089567
vn 0.359146 -0.926056 -0.115903
vn -0.133368 -0.427821 0.893970
vn 0.000000 -0.480712 0.876878
vn -0.495948 0.791890 0.356294
vn -0.077818 0.887132 0.454907
vn -0.373409 0.871176 0.318775
vn -0.022219 0.307690 0.951227
vn 0.134958 0.139908 0.980924
vn 0.017794 0.404806 0.914229
vn -0.174812 -0.378192 0.909072
vn 0.282466 0.945421 0.162456
vn -0.002307 0.994144 0.108038
vn 0.435385 0.897893 0.065028
vn -0.006144 0.999932 0.009919
vn -0.408766 -0.625032 -0.665016
vn -0.408656 -0.228937 -0.883509
vn -0.006653 -0.705568 -0.708611
vn -0.003881 -0.081638 -0.996655
vn 0.044440 -0.971402 -0.233245
vn -0.058736 -0.996666 -0.056627
vn 0.002392 -0.998594 -0.052965
vn -0.002159 -0.999289 -0.037638
vn 0.833746 0.086003 0.545410
vn 0.634436 0.735389 0.238106
vn 0.889563 0.408358 0.204746
vn 0.889948 0.423031 0.170407
vn -0.889948 0.423031 0.170407
vn -0.634436 0.735389 0.238106
vn -0.889563 0.408358 0.204746
vn -0.833746 0.086003 0.545410
vn -0.945877 0.291839 0.141939
vn -0.950139 0.283591 0.129660
vn -0.987596 0.139286 -0.072484
vn -0.946008 0.073928 -0.315600
vn 0.009247 0.419103 -0.907892
vn -0.379455 0.319701 -0.868220
vn -0.006386 0.580375 -0.814324
vn -0.164890 0.520428 -0.837834
vn 0.946008 0.073928 -0.315600
vn 0.950139 0.283591 0.129660
vn 0.987596 0.139286 -0.072484
vn 0.945877 0.291839 0.141939
vn -0.208415 -0.167104 0.963659
vn -0.055365 0.059623 0.996684
vn -0.016545 -0.160689 0.986866
vn 0.007161 -0.052069 0.998618
vn -0.160164 0.122920 0.979407
vn 0.184244 -0.374065 0.908917
vn 0.123675 0.049436 0.991091
vn 0.198112 -0.167667 0.965733
vn -0.409288 0.910122 0.064506
vn -0.269795 0.949789 0.158468
vn 0.377716 0.304970 -0.874256
vn 0.155441 0.519238 -0.840375
vn 0.383666 -0.248960 -0.889281
vn 0.382036 -0.643284 -0.663501
vn 0.058470 -0.996431 -0.060879
vn -0.047175 -0.970882 -0.234866
vn -0.305038 0.448725 0.839999
vn -0.389943 0.550658 0.738052
vn 0.077917 0.170705 0.982237
vn -0.382540 0.547783 0.744041
vn -0.310410 0.050348 0.949269
vn -0.755887 0.648640 0.088885
vn -0.468270 0.839741 -0.274880
vn -0.347939 0.857094 -0.379905
vn -0.077467 0.823829 -0.561520
vn -0.425043 -0.699506 -0.574483
vn 0.692967 -0.545206 -0.471750
vn -0.784528 -0.335864 -0.521259
vn 0.953092 -0.102425 -0.284825
vn 0.990128 0.119678 0.072966
vn 0.951069 0.296539 0.086789
vn -0.991634 -0.094865 0.087541
vn -0.977697 -0.198938 0.067322
vn 0.787569 -0.254820 -0.561072
vn 0.998560 -0.049359 0.021001
vn 0.280735 -0.885010 -0.371409
vn -0.596660 -0.440687 -0.670665
vn -0.952855 -0.303314 0.008213
vn 0.088150 -0.121279 0.988697
vn -0.030254 -0.060210 0.997727
vn -0.116078 0.329978 0.936825
s 1
g squirrel_head1
usemtl initialShadingGroup
f 1/1/1 16/22/2 3/3/3
f 3/3/3 16/22/2 17/20/4
s 2
f 9/25/5 3/3/6 18/19/7
f 18/19/7 3/3/6 17/20/8
s 3
f 5/7/9 13/32/10 7/31/11
f 7/27/11 13/8/10 14/33/12
s 4
f 10/11/13 15/23/14 1/1/15
f 1/1/15 15/23/14 16/22/16
s 5
f 2/13/17 11/14/18 4/15/19
f 4/15/19 11/14/18 12/16/20
s 6
f 9/25/21 10/11/22 3/3/23
f 3/3/23 10/11/22 1/1/24
f 5/7/25 7/31/26 9/5/21
f 9/25/21 7/34/26 10/11/22
s 4
f 10/26/13 7/28/27 15/29/14
f 15/21/14 7/9/27 14/30/28
s 5
f 11/14/18 8/17/29 12/16/20
f 12/16/20 8/17/29 6/18/30
s 2
f 9/25/5 18/19/7 5/7/31
f 5/7/31 18/19/7 13/32/32
s 3
f 14/33/12 13/8/10 8/24/33
f 8/24/33 13/8/10 6/18/34
s 4
f 11/14/35 15/12/14 8/17/36
f 8/17/36 15/12/14 14/10/28
f 16/2/16 15/12/14 2/13/37
f 2/13/37 15/12/14 11/14/35
s 1
f 17/4/4 16/2/2 4/15/38
f 4/15/38 16/2/2 2/13/39
s 2
f 12/16/40 18/6/7 4/15/41
f 4/15/41 18/6/7 17/4/8
f 13/8/32 18/6/7 6/18/42
f 6/18/42 18/6/7 12/16/40
s 9
f 36/35/43 31/36/44 35/37/45
f 35/37/45 31/36/44 19/38/46
s 10
f 21/39/47 38/40/48 23/41/49
f 23/41/49 38/40/48 39/42/50
s 11
f 25/43/51 32/44/52 42/45/53
f 42/45/53 32/44/52 41/46/54
s 12
f 19/47/55 25/43/56 35/48/57
f 35/48/57 25/43/56 42/45/58
s 13
f 20/49/59 26/50/60 34/51/61
f 34/52/61 26/53/60 33/54/62
s 14
f 32/55/63 25/56/64 31/57/65
f 31/36/65 25/58/64 19/38/66
f 28/59/67 27/60/68 23/61/69
f 23/61/69 27/60/68 21/39/70
s 11
f 40/62/71 28/59/72 39/63/73
f 39/63/73 28/59/72 23/61/74
s 13
f 22/64/75 30/65/76 24/66/77
f 24/66/77 30/65/76 29/67/78
s 9
f 21/39/79 27/60/80 38/40/81
f 38/40/81 27/60/80 37/68/82
s 14
f 28/69/67 32/55/63 27/70/68
f 27/70/68 32/55/63 31/57/65
s 11
f 32/55/52 28/69/72 41/71/54
f 41/71/54 28/69/72 40/72/71
s 13
f 34/52/61 33/54/62 30/73/76
f 30/73/76 33/54/62 29/74/78
s 9
f 37/68/82 27/60/80 36/35/43
f 36/35/43 27/60/80 31/36/44
f 36/35/43 35/37/45 34/51/83
f 34/51/83 35/37/45 20/49/84
f 37/68/82 36/35/43 30/65/85
f 30/65/85 36/35/43 34/51/83
f 37/68/82 30/65/85 38/40/81
f 38/40/81 30/65/85 22/64/86
s 10
f 39/42/50 38/40/48 24/75/87
f 24/75/87 38/40/48 22/64/88
s 11
f 40/76/71 39/77/73 29/67/89
f 29/67/89 39/77/73 24/66/90
f 33/54/91 41/78/54 29/74/89
f 29/74/89 41/78/54 40/79/71
f 41/46/54 33/80/91 42/45/53
f 42/45/53 33/80/91 26/81/92
s 12
f 42/45/58 26/81/93 35/48/57
f 35/48/57 26/81/93 20/82/94
s 19
f 52/83/95 45/84/96 56/85/97
f 45/86/96 44/87/98 56/88/97
f 44/89/98 55/90/99 56/91/97
s 20
f 44/92/100 45/93/101 46/94/102
f 46/95/102 45/96/101 47/97/103
s 21
f 46/98/104 47/99/105 54/100/106
f 54/101/106 47/102/105 53/103/107
f 52/104/108 53/105/107 45/106/109
f 45/107/109 53/108/107 47/109/105
f 46/110/104 54/111/106 44/112/110
f 44/113/110 54/114/106 55/115/111
f 49/116/112 48/117/113 43/118/114
f 50/119/115 49/120/112 43/121/114
f 51/122/116 50/123/115 43/124/114
s 19
f 48/125/117 51/126/118 43/127/119
s 21
f 52/128/108 48/129/113 53/130/107
f 53/131/107 48/132/113 49/133/112
f 54/134/106 53/135/107 50/136/115
f 50/137/115 53/138/107 49/139/112
f 55/140/111 54/141/106 51/142/116
f 51/143/116 54/144/106 50/145/115
s 19
f 52/146/95 56/147/97 48/148/117
f 48/149/117 56/150/97 51/151/118
f 56/152/97 55/153/99 51/154/118
